<svg width="109" height="109" viewBox="0 0 109 109" xmlns="http://www.w3.org/2000/svg" xmlns:xlink="http://www.w3.org/1999/xlink" xml:space="preserve" version="1.1"  baseProfile="full">
<path style="fill:none;stroke:darkmagenta;stroke-width:2" d="M53.27,10.63c0.69,0.31,2.16,2.32,2.3,2.94c0.14,0.62,0.07,2.94-0.07,6.81"/>
<text x="53.27" y="10.63" style="stroke:black" font-size="5">1</text>
<text x="53.27" y="10.63" style="fill:darkmagenta" font-size="5">1</text>
<path style="fill:none;stroke:darkolivegreen;stroke-width:2" d="M20.2,23.27c1.53,0.53,4.35,0.62,5.89,0.53c15.97-0.89,42.8-4.51,56.92-5.54c2.55-0.19,4.09,0.25,5.37,0.52"/>
<text x="20.2" y="23.27" style="stroke:black" font-size="5">2</text>
<text x="20.2" y="23.27" style="fill:darkolivegreen" font-size="5">2</text>
<path style="fill:none;stroke:darkorange;stroke-width:2" d="M24.7,24.02c0.04,1.68,0.08,4.35-0.08,6.77c-0.97,14.27-3.14,48.89-13.56,64.26"/>
<text x="24.7" y="24.02" style="stroke:black" font-size="5">3</text>
<text x="24.7" y="24.02" style="fill:darkorange" font-size="5">3</text>
<path style="fill:none;stroke:darkorchid;stroke-width:2" d="M29.69,33.01c2.14,0.45,3.95,0.74,6.17,0.56c15.3-1.23,41.7-4.48,46-4.67c3.21-0.14,3.17,1.14,2.77,2.79c-0.63,2.57-1.5,4.73-2.95,7.88"/>
<text x="29.69" y="33.01" style="stroke:black" font-size="5">4</text>
<text x="29.69" y="33.01" style="fill:darkorchid" font-size="5">4</text>
<path style="fill:none;stroke:darkred;stroke-width:2" d="M44.26,26.42c0.8,0.23,1.29,1.45,1.45,1.92c0.16,0.47,0.62,9.4,1.07,12.64"/>
<text x="44.26" y="26.42" style="stroke:black" font-size="5">5</text>
<text x="44.26" y="26.42" style="fill:darkred" font-size="5">5</text>
<path style="fill:none;stroke:darksalmon;stroke-width:2" d="M63.69,24.05c0.8,0.23,1.49,1.44,1.45,1.92c-0.2,2.09-1.07,10.68-1.76,13.92"/>
<text x="63.69" y="24.05" style="stroke:black" font-size="5">6</text>
<text x="63.69" y="24.05" style="fill:darksalmon" font-size="5">6</text>
<path style="fill:none;stroke:darkseagreen;stroke-width:2" d="M30.42,43.69c1.39,0.35,3.94,0.44,5.32,0.35c8.85-0.6,34.12-4.27,44.05-4.14c2.31,0.03,3.7,0.17,4.86,0.34"/>
<text x="30.42" y="43.69" style="stroke:black" font-size="5">7</text>
<text x="30.42" y="43.69" style="fill:darkseagreen" font-size="5">7</text>
<path style="fill:none;stroke:darkslateblue;stroke-width:2" d="M36.92,52.54c4.55-0.17,9.79-1.15,13.75-1.43c1.16-0.08,1.9-0.08,2.5-0.03"/>
<text x="36.92" y="52.54" style="stroke:black" font-size="5">8</text>
<text x="36.92" y="52.54" style="fill:darkslateblue" font-size="5">8</text>
<path style="fill:none;stroke:darkslategray;stroke-width:2" d="M34.43,49.72c0.82,0.3,1.52,1.17,1.52,1.58c0,1.1-0.26,9.18-0.26,10.57c0,1.55,1.66,1.32,3.29,0.83c4.27-1.27,6.76-2.8,11.88-4.82"/>
<text x="34.43" y="49.72" style="stroke:black" font-size="5">9</text>
<text x="34.43" y="49.72" style="fill:darkslategray" font-size="5">9</text>
<path style="fill:none;stroke:darkslategrey;stroke-width:2" d="M80.88,45.69c0.21,0.3,0.54,0.82,0.18,1.35c-0.51,0.75-11.03,4.21-17.45,5.87"/>
<text x="80.88" y="45.69" style="stroke:black" font-size="5">10</text>
<text x="80.88" y="45.69" style="fill:darkslategrey" font-size="5">10</text>
<path style="fill:none;stroke:darkturquoise;stroke-width:2" d="M61.53,43.85c0.83,0.29,1.15,1.4,1.15,2.13c0,0.96,0.43,9.12,0.41,10.25c-0.1,4.11,2.87,4.9,12.79,4.9c9.27,0,13.16-0.43,13.16-3.97"/>
<text x="61.53" y="43.85" style="stroke:black" font-size="5">11</text>
<text x="61.53" y="43.85" style="fill:darkturquoise" font-size="5">11</text>
<path style="fill:none;stroke:darkviolet;stroke-width:2" d="M53.52,60.33c1.76,1.47,4.35,5.6,4.79,7.88"/>
<text x="53.52" y="60.33" style="stroke:black" font-size="5">12</text>
<text x="53.52" y="60.33" style="fill:darkviolet" font-size="5">12</text>
<path style="fill:none;stroke:deeppink;stroke-width:2" d="M34,72.11c2.5,0.64,4.3,1.16,5.55,1.03c13.76-1.39,23.95-2.64,37.7-3.93c1.91-0.18,3.66,0.09,5.25,0.49"/>
<text x="34" y="72.11" style="stroke:black" font-size="5">13</text>
<text x="34" y="72.11" style="fill:deeppink" font-size="5">13</text>
<path style="fill:none;stroke:deepskyblue;stroke-width:2" d="M56.59,71.83c0.49,0.57,0.99,1.65,0.99,2.1c0,3.17,0.25,17.9,0.12,21.07"/>
<text x="56.59" y="71.83" style="stroke:black" font-size="5">14</text>
<text x="56.59" y="71.83" style="fill:deepskyblue" font-size="5">14</text>
<path style="fill:none;stroke:dimgray;stroke-width:2" d="M37,83.95c1.06,0.59,4.55,0.34,5.63,0.26c13.37-0.96,19.62-1.96,30.42-3.02c1.32-0.13,4.23-0.24,6.2,0.28"/>
<text x="37" y="83.95" style="stroke:black" font-size="5">15</text>
<text x="37" y="83.95" style="fill:dimgray" font-size="5">15</text>
<path style="fill:none;stroke:dimgrey;stroke-width:2" d="M25,97.17c1.09,0.32,6.78,0.17,8.62,0.01c16.06-1.38,36.87-2.75,50.85-3.06c2.97-0.07,6.54,0.53,8.03,1.03"/>
<text x="25" y="97.17" style="stroke:black" font-size="5">16</text>
<text x="25" y="97.17" style="fill:dimgrey" font-size="5">16</text>
</svg>