<svg width="109" height="109" viewBox="0 0 109 109" xmlns="http://www.w3.org/2000/svg" xmlns:xlink="http://www.w3.org/1999/xlink" xml:space="preserve" version="1.1"  baseProfile="full">
<path style="fill:none;stroke:darkmagenta;stroke-width:2" d="M36.05,19.5c0.07,0.61-0.17,1.57-0.63,2.21C30,29.25,23.75,36.25,11.25,45.29"/>
<text x="36.05" y="19.5" style="stroke:black" font-size="5">1</text>
<text x="36.05" y="19.5" style="fill:darkmagenta" font-size="5">1</text>
<path style="fill:none;stroke:darkolivegreen;stroke-width:2" d="M19,19.25c28.25,23.5,17.71,84.53,6,71.5"/>
<text x="19" y="19.25" style="stroke:black" font-size="5">2</text>
<text x="19" y="19.25" style="fill:darkolivegreen" font-size="5">2</text>
<path style="fill:none;stroke:darkorange;stroke-width:2" d="M31.33,46.75c0.05,0.63-0.01,1.58-0.36,2.26c-4.44,8.62-8.69,14.71-19.47,24.03"/>
<text x="31.33" y="46.75" style="stroke:black" font-size="5">3</text>
<text x="31.33" y="46.75" style="fill:darkorange" font-size="5">3</text>
<path style="fill:none;stroke:darkorchid;stroke-width:2" d="M42.25,32.18c2.75,0.45,4.5,0.33,6.63,0.07c12.24-1.5,29.24-3.12,40.87-3.86c2.16-0.14,4.37-0.17,6.49,0.26"/>
<text x="42.25" y="32.18" style="stroke:black" font-size="5">4</text>
<text x="42.25" y="32.18" style="fill:darkorchid" font-size="5">4</text>
<path style="fill:none;stroke:darkred;stroke-width:2" d="M55.26,17.76c0.99,0.99,1.55,2.3,1.67,3.39C58.1,31.32,59.11,41.3,59.44,45"/>
<text x="55.26" y="17.76" style="stroke:black" font-size="5">5</text>
<text x="55.26" y="17.76" style="fill:darkred" font-size="5">5</text>
<path style="fill:none;stroke:darksalmon;stroke-width:2" d="M79.98,16.5c0.65,1,0.77,1.88,0.58,3.07c-1.66,10.51-2.17,14.72-4.17,24.58"/>
<text x="79.98" y="16.5" style="stroke:black" font-size="5">6</text>
<text x="79.98" y="16.5" style="fill:darksalmon" font-size="5">6</text>
<path style="fill:none;stroke:darkseagreen;stroke-width:2" d="M47.32,52.24c0.97,0.97,1.36,2.43,1.5,3.5c1.06,8.64,2.3,20.37,3.03,31.5c0.13,1.92,0.24,3.8,0.35,5.59"/>
<text x="47.32" y="52.24" style="stroke:black" font-size="5">7</text>
<text x="47.32" y="52.24" style="fill:darkseagreen" font-size="5">7</text>
<path style="fill:none;stroke:darkslateblue;stroke-width:2" d="M49.78,54.28c12.83-1.32,25.34-2.9,36.47-3.46c3.89-0.19,6.42,0.53,6.01,4.81c-0.62,6.5-2.2,19.8-3.89,30.68c-0.35,2.25-0.7,4.4-1.05,6.36"/>
<text x="49.78" y="54.28" style="stroke:black" font-size="5">8</text>
<text x="49.78" y="54.28" style="fill:darkslateblue" font-size="5">8</text>
<path style="fill:none;stroke:darkslategray;stroke-width:2" d="M67.8,53.84c0.87,0.87,1.08,2.01,1.08,3.16c0,8-0.01,25.49-0.01,31.62"/>
<text x="67.8" y="53.84" style="stroke:black" font-size="5">9</text>
<text x="67.8" y="53.84" style="fill:darkslategray" font-size="5">9</text>
<path style="fill:none;stroke:darkslategrey;stroke-width:2" d="M51.47,70.33c5.4-0.58,35.24-2.33,38.19-2.39"/>
<text x="51.47" y="70.33" style="stroke:black" font-size="5">10</text>
<text x="51.47" y="70.33" style="fill:darkslategrey" font-size="5">10</text>
<path style="fill:none;stroke:darkturquoise;stroke-width:2" d="M53.28,90.49c9.97-0.62,22.66-1,33.57-1.4"/>
<text x="53.28" y="90.49" style="stroke:black" font-size="5">11</text>
<text x="53.28" y="90.49" style="fill:darkturquoise" font-size="5">11</text>
</svg>