<svg width="109" height="109" viewBox="0 0 109 109" xmlns="http://www.w3.org/2000/svg" xmlns:xlink="http://www.w3.org/1999/xlink" xml:space="preserve" version="1.1"  baseProfile="full">
<path style="fill:none;stroke:darkmagenta;stroke-width:2" d="M20.5,33.5c1.93,0.62,4.91,1.07,8.1,0.75C42.43,32.88,66,30.75,79.64,30c3.2-0.18,7.22,0.25,9.23,0.5"/>
<text x="20.5" y="33.5" style="stroke:black" font-size="5">1</text>
<text x="20.5" y="33.5" style="fill:darkmagenta" font-size="5">1</text>
<path style="fill:none;stroke:darkolivegreen;stroke-width:2" d="M52.1,11.12c1.25,1.25,2.05,3.23,2.05,4.99c0,0.84,0,57.16-0.02,76.76c-0.01,3.96-0.01,6.42-0.02,6.62"/>
<text x="52.1" y="11.12" style="stroke:black" font-size="5">2</text>
<text x="52.1" y="11.12" style="fill:darkolivegreen" font-size="5">2</text>
<path style="fill:none;stroke:darkorange;stroke-width:2" d="M51.75,33.5c0,1-0.41,2.22-1.29,3.88C43.62,50.25,30.12,65.5,13.25,75.5"/>
<text x="51.75" y="33.5" style="stroke:black" font-size="5">3</text>
<text x="51.75" y="33.5" style="fill:darkorange" font-size="5">3</text>
<path style="fill:none;stroke:darkorchid;stroke-width:2" d="M54.75,35.5c4.92,5.74,23.48,23.33,32.85,31.27c2.58,2.18,5.16,4.41,8.52,5.23"/>
<text x="54.75" y="35.5" style="stroke:black" font-size="5">4</text>
<text x="54.75" y="35.5" style="fill:darkorchid" font-size="5">4</text>
<path style="fill:none;stroke:darkred;stroke-width:2" d="M33.88,73.92c1.5,0.46,2.74,0.75,5.3,0.59c9.95-0.63,21.2-2.13,27.96-2.95c1.93-0.23,3.62-0.31,6-0.02"/>
<text x="33.88" y="73.92" style="stroke:black" font-size="5">5</text>
<text x="33.88" y="73.92" style="fill:darkred" font-size="5">5</text>
</svg>